<svg width="67" height="56" viewBox="0 0 67 56" fill="none" xmlns="http://www.w3.org/2000/svg">
<line x1="33.4705" y1="20.6691" x2="33.4705" y2="38.6523" stroke="white" stroke-width="2"/>
<line x1="33.4705" y1="2.68591" x2="33.4705" y2="20.669" stroke="white" stroke-width="2"/>
<line x1="20.8142" y1="25.0198" x2="33.5302" y2="37.7357" stroke="white" stroke-width="2"/>
<line y1="-1" x2="17.9831" y2="-1" transform="matrix(1 0 0 -1 3.24786 25.1649)" stroke="white" stroke-width="2"/>
<line x1="1" y1="-1" x2="16.9831" y2="-1" transform="matrix(1 0 0 -1 24.0409 37.5281)" stroke="white" stroke-width="2" stroke-linecap="round"/>
<line x1="62.817" y1="26.1649" x2="44.8339" y2="26.1649" stroke="#5B9348" stroke-width="2"/>
<line y1="-1" x2="17.9831" y2="-1" transform="matrix(0 -1 -1 0 20.669 25.7269)" stroke="white" stroke-width="2"/>
<line x1="44.3958" y1="25.7269" x2="44.3958" y2="7.74375" stroke="#F87700" stroke-width="2"/>
<line y1="-1" x2="17.9831" y2="-1" transform="matrix(-0.707107 0.707107 0.707107 0.707107 45.7484 25.7269)" stroke="white" stroke-width="2"/>
<line y1="-1" x2="17.9831" y2="-1" transform="matrix(-0.707107 0.707107 0.707107 0.707107 58.1118 13.3634)" stroke="#F9D61F" stroke-width="2"/>
<line x1="8.45076" y1="12.6563" x2="21.1667" y2="25.3723" stroke="white" stroke-width="2"/>
<circle cx="33.0324" cy="3.24789" r="2.24789" fill="#370075" stroke="white" stroke-width="2"/>
<circle cx="33.0324" cy="19.5451" r="2.24789" fill="#370075" stroke="white" stroke-width="2"/>
<circle cx="21.231" cy="7.74362" r="2.24789" fill="#370075" stroke="white" stroke-width="2"/>
<circle cx="7.74362" cy="12.8014" r="2.24789" fill="#370075" stroke="white" stroke-width="2"/>
<circle cx="58.3211" cy="12.8014" r="2.24789" fill="#F9D61F" stroke="#F9D61F" stroke-width="2"/>
<circle cx="3.24789" cy="25.7268" r="2.24789" fill="#370075" stroke="white" stroke-width="2"/>
<circle cx="62.817" cy="25.7268" r="2.24789" fill="#5B9348" stroke="#5B9348" stroke-width="2"/>
<circle cx="21.231" cy="25.7268" r="2.24789" fill="#370075" stroke="white" stroke-width="2"/>
<circle cx="44.8338" cy="25.7268" r="2.24789" fill="#370075" stroke="white" stroke-width="2"/>
<circle cx="44.8338" cy="7.74362" r="2.24789" fill="#F87700" stroke="#F87700" stroke-width="2"/>
<path d="M20.6128 55.9094V50.7236H18.3478V49.5242H24.4051V50.7236H22.1401V55.9094H20.6128Z" fill="white"/>
<path d="M28.0391 49.6493C28.7409 49.5141 29.46 49.4465 30.1963 49.4465C31.2432 49.4465 32.0241 49.6335 32.539 50.0074C33.0538 50.3784 33.3112 50.9594 33.3112 51.7504C33.3112 52.5183 33.0596 53.0964 32.5562 53.4847C32.0529 53.873 31.2979 54.0672 30.2912 54.0672C30.0812 54.0672 29.8396 54.06 29.5664 54.0456V55.9094H28.0391V49.6493ZM30.3041 52.9972C30.6665 52.9972 30.9585 52.9555 31.18 52.8721C31.4043 52.7858 31.5682 52.6521 31.6718 52.4709C31.7782 52.2897 31.8314 52.0509 31.8314 51.7547C31.8314 51.3233 31.7106 51.0098 31.469 50.8142C31.2274 50.6157 30.8506 50.5165 30.3387 50.5165C30.0712 50.5165 29.8138 50.5366 29.5664 50.5769V52.9498C29.7965 52.9814 30.0424 52.9972 30.3041 52.9972Z" fill="white"/>
<path d="M35.956 51.1162C36.5398 51.1162 37.0087 51.1823 37.3624 51.3146C37.7191 51.4469 37.9822 51.6655 38.1519 51.9704C38.3245 52.2753 38.4108 52.6923 38.4108 53.2216V55.9094H37.1726L37.0734 55.465H37C36.8332 55.6376 36.6247 55.7699 36.3744 55.8619C36.1271 55.9511 35.8582 55.9957 35.5677 55.9957C35.1938 55.9957 34.8759 55.9381 34.6142 55.8231C34.3525 55.7052 34.1555 55.5427 34.0232 55.3356C33.8908 55.1285 33.8247 54.8898 33.8247 54.6194C33.8247 54.1736 34.0001 53.8284 34.351 53.584C34.7019 53.3395 35.2527 53.1928 36.0034 53.1439L36.9483 53.0706C36.9425 52.8462 36.8979 52.6708 36.8145 52.5442C36.7311 52.4177 36.6002 52.3271 36.4219 52.2724C36.2465 52.2178 36.0063 52.1904 35.7014 52.1904C35.4857 52.1904 35.247 52.2091 34.9852 52.2465C34.7235 52.281 34.4776 52.3328 34.2475 52.4018V51.3405C34.5035 51.2657 34.7825 51.2096 35.0845 51.1723C35.3893 51.1349 35.6798 51.1162 35.956 51.1162ZM36.0293 55.0206C36.1932 55.0206 36.3543 54.9962 36.5125 54.9473C36.6736 54.8955 36.8188 54.8193 36.9483 54.7186V53.8687L36.1372 53.9334C35.838 53.9593 35.6238 54.0183 35.4943 54.1103C35.3678 54.2023 35.3045 54.3318 35.3045 54.4986C35.3045 54.6625 35.3649 54.7905 35.4857 54.8826C35.6065 54.9746 35.7877 55.0206 36.0293 55.0206Z" fill="white"/>
<path d="M39.5732 51.1895H40.7899L40.9064 51.7547H40.9754C41.1278 51.5505 41.3248 51.3952 41.5665 51.2887C41.8081 51.1794 42.0755 51.1248 42.3689 51.1248C42.5329 51.1248 42.6824 51.1377 42.8176 51.1636V52.4795C42.6767 52.4507 42.4983 52.4363 42.2826 52.4363C42.0554 52.4363 41.8282 52.4752 41.601 52.5528C41.3766 52.6276 41.1983 52.7369 41.066 52.8807V55.9094H39.5732V51.1895Z" fill="white"/>
<path d="M45.1145 56C44.7895 56 44.4731 55.9813 44.1654 55.9439C43.8576 55.9065 43.5757 55.8518 43.3197 55.7799V54.7661C43.5901 54.8409 43.8777 54.8984 44.1826 54.9387C44.4904 54.976 44.7967 54.9947 45.1016 54.9947C45.4553 54.9947 45.707 54.9573 45.8566 54.8826C46.0061 54.8049 46.0809 54.6899 46.0809 54.5374C46.0809 54.4252 46.0464 54.3404 45.9774 54.2829C45.9112 54.2225 45.7861 54.1793 45.602 54.1534L44.6744 54.024C44.1538 53.9492 43.7799 53.7997 43.5527 53.5753C43.3255 53.3481 43.2119 53.0404 43.2119 52.6521C43.2119 52.1717 43.4204 51.7964 43.8375 51.526C44.2545 51.2528 44.8887 51.1162 45.7401 51.1162C46.0018 51.1162 46.265 51.1334 46.5296 51.1679C46.7971 51.1996 47.0301 51.2427 47.2285 51.2974V52.3112C47.0185 52.2537 46.7827 52.2077 46.521 52.1732C46.2621 52.1387 46.0061 52.1214 45.753 52.1214C45.3245 52.1214 45.0282 52.1631 44.8643 52.2465C44.7032 52.3271 44.6227 52.4407 44.6227 52.5874C44.6227 52.688 44.6572 52.77 44.7262 52.8333C44.7952 52.8937 44.9189 52.9382 45.0972 52.967L46.0248 53.0964C46.5224 53.1655 46.892 53.305 47.1336 53.5149C47.3752 53.7249 47.496 54.0427 47.496 54.4684C47.496 54.7848 47.4054 55.058 47.2242 55.2881C47.043 55.5182 46.7741 55.6951 46.4174 55.8188C46.0608 55.9396 45.6265 56 45.1145 56Z" fill="white"/>
<rect x="25.317" y="48.8496" width="1.56884" height="1.56884" fill="#F87700"/>
<rect x="25.317" y="51.2029" width="1.56884" height="2.35326" fill="#F9D61F"/>
<rect x="25.317" y="53.5562" width="1.56884" height="2.35326" fill="#4E803D"/>
</svg>
